# 3ds Max Wavefront OBJ Exporter v0.97b - (c)2007 guruware
# File Created: 17.09.2019 15:35:48

mtllib ????????.mtl

#
# object Pyramid001
#

v  -70.6624 20.0000 36.6012
v  -80.6624 0.0000 46.6012
v  -60.6624 0.0000 46.6012
v  -60.6624 0.0000 26.6012
v  -80.6624 0.0000 26.6012
v  -70.6624 0.0000 36.6012
# 6 vertices

vn 0.0000 1.0000 -0.0000
vn -0.6626 -0.3491 0.6626
vn 0.6626 -0.3491 0.6626
vn 0.6626 -0.3491 -0.6626
vn -0.6626 -0.3491 -0.6626
vn 0.0000 -1.0000 -0.0000
# 6 vertex normals

vt 10.0000 20.0000 0.0000
vt 0.0000 0.0000 0.0000
vt 20.0000 0.0000 0.0000
vt 0.0000 20.0000 0.0000
vt 10.0000 10.0000 0.0000
vt 20.0000 20.0000 0.0000
# 6 texture coords

o Pyramid001
g Pyramid001
usemtl wire_088144225
s 4
f 1/1/1 2/2/2 3/3/3 
s 2
f 1/1/1 3/2/3 4/3/4 
s 16
f 1/1/1 4/2/4 5/3/5 
s 32
f 1/1/1 5/2/5 2/3/2 
s 8
f 2/4/2 6/5/6 3/6/3 
f 3/6/3 6/5/6 4/3/4 
f 4/3/4 6/5/6 5/2/5 
f 5/2/5 6/5/6 2/4/2 
# 0 polygons - 8 triangles

