<svg xmlns="http://www.w3.org/2000/svg" width="129" height="40" viewBox="0 0 129 40">
    <path fill="#FFF" fill-rule="nonzero" d="M67.88 10.04c0 1.44-1.16 2.6-2.6 2.6-1.44 0-2.6-1.16-2.6-2.6 0-1.44 1.12-2.6 2.6-2.6 1.48.04 2.6 1.2 2.6 2.6zm-10.72 5.24v.64s-1.24-1.6-3.88-1.6c-4.36 0-7.76 3.32-7.76 7.92 0 4.56 3.36 7.92 7.76 7.92 2.68 0 3.88-1.64 3.88-1.64v.68c0 .32.24.56.56.56h3.24V14.72h-3.24c-.32 0-.56.28-.56.56zm0 9.64c-.6.88-1.8 1.64-3.24 1.64-2.56 0-4.52-1.6-4.52-4.32s1.96-4.32 4.52-4.32c1.4 0 2.68.8 3.24 1.64v5.36zm6.2-10.2h3.84v15.04h-3.84V14.72zm57.36-.4c-2.64 0-3.88 1.6-3.88 1.6V7.48H113v22.28h3.24c.32 0 .56-.28.56-.56v-.68s1.24 1.64 3.88 1.64c4.36 0 7.76-3.36 7.76-7.92 0-4.56-3.4-7.92-7.72-7.92zm-.64 12.2c-1.48 0-2.64-.76-3.24-1.64v-5.36c.6-.8 1.88-1.64 3.24-1.64 2.56 0 4.52 1.6 4.52 4.32s-1.96 4.32-4.52 4.32zM111 20.84v8.96h-3.84v-8.52c0-2.48-.8-3.48-2.96-3.48-1.16 0-2.36.6-3.12 1.48v10.48h-3.84V14.72h3.04c.32 0 .56.28.56.56v.64c1.12-1.16 2.6-1.6 4.08-1.6 1.68 0 3.08.48 4.2 1.44 1.36 1.12 1.88 2.56 1.88 5.08zm-23.08-6.52c-2.64 0-3.88 1.6-3.88 1.6V7.48H80.2v22.28h3.24c.32 0 .56-.28.56-.56v-.68s1.24 1.64 3.88 1.64c4.36 0 7.76-3.36 7.76-7.92.04-4.56-3.36-7.92-7.72-7.92zm-.64 12.2c-1.48 0-2.64-.76-3.24-1.64v-5.36c.6-.8 1.88-1.64 3.24-1.64 2.56 0 4.52 1.6 4.52 4.32s-1.96 4.32-4.52 4.32zm-10.4-12.2c1.16 0 1.76.2 1.76.2v3.56s-3.2-1.08-5.2 1.2V29.8H69.6V14.72h3.24c.32 0 .56.28.56.56v.64c.72-.84 2.28-1.6 3.48-1.6zM37 28.4c-.2-.48-.4-1-.6-1.44-.32-.72-.64-1.4-.92-2.04l-.04-.04c-2.76-6-5.72-12.08-8.84-18.08l-.12-.24c-.32-.6-.64-1.24-.96-1.88-.4-.72-.8-1.48-1.44-2.2C22.8.88 20.96 0 19 0c-2 0-3.8.88-5.12 2.4-.6.72-1.04 1.48-1.44 2.2-.32.64-.64 1.28-.96 1.88l-.12.24c-3.08 6-6.08 12.08-8.84 18.08l-.04.08c-.28.64-.6 1.32-.92 2.04-.2.44-.4.92-.6 1.44-.52 1.48-.68 2.88-.48 4.32a8.5 8.5 0 0 0 5.2 6.64c1.04.44 2.12.64 3.24.64.32 0 .72-.04 1.04-.08 1.32-.16 2.68-.6 4-1.36 1.64-.92 3.2-2.24 4.96-4.16 1.76 1.92 3.36 3.24 4.96 4.16 1.32.76 2.68 1.2 4 1.36.32.04.72.08 1.04.08 1.12 0 2.24-.2 3.24-.64 2.8-1.12 4.76-3.68 5.2-6.64.32-1.4.16-2.8-.36-4.28zm-18.04 2.08c-2.16-2.72-3.56-5.28-4.04-7.44-.2-.92-.24-1.72-.12-2.44.08-.64.32-1.2.64-1.68.76-1.08 2.04-1.76 3.52-1.76s2.8.64 3.52 1.76c.32.48.56 1.04.64 1.68.12.72.08 1.56-.12 2.44-.48 2.12-1.88 4.68-4.04 7.44zm15.96 1.88a5.944 5.944 0 0 1-3.64 4.68c-.96.4-2 .52-3.04.4-1-.12-2-.44-3.04-1.04-1.44-.8-2.88-2.04-4.56-3.88 2.64-3.24 4.24-6.2 4.84-8.84.28-1.24.32-2.36.2-3.4-.16-1-.52-1.92-1.08-2.72-1.24-1.8-3.32-2.84-5.64-2.84s-4.4 1.08-5.64 2.84c-.56.8-.92 1.72-1.08 2.72-.16 1.04-.12 2.2.2 3.4.6 2.64 2.24 5.64 4.84 8.88-1.64 1.84-3.12 3.08-4.56 3.88-1.04.6-2.04.92-3.04 1.04-1.08.12-2.12-.04-3.04-.4-1.96-.8-3.36-2.6-3.64-4.68-.12-1-.04-2 .36-3.12.12-.4.32-.8.52-1.28.28-.64.6-1.32.92-2l.04-.08c2.76-5.96 5.72-12.04 8.8-17.96l.12-.24c.32-.6.64-1.24.96-1.84.32-.64.68-1.24 1.12-1.76.84-.96 1.96-1.48 3.2-1.48 1.24 0 2.36.52 3.2 1.48.44.52.8 1.12 1.12 1.76.32.6.64 1.24.96 1.84l.12.24c3.04 5.96 6 12.04 8.76 18V26c.32.64.6 1.36.92 2 .2.48.4.88.52 1.28.32 1.04.44 2.04.28 3.08z"/>
</svg>
