<svg xmlns="http://www.w3.org/2000/svg" width="19" height="21" viewBox="0 0 19 21">
    <path fill="#FFF" fill-rule="nonzero" d="M8.751 9.366a.74.74 0 1 0-1.047-1.048l-3.915 3.92a3.458 3.458 0 0 0-1.028 2.476c0 .939.36 1.806 1.028 2.474 1.371 1.373 3.59 1.373 4.944 0l8.842-8.851A4.854 4.854 0 0 0 19 4.887c0-1.301-.505-2.53-1.425-3.45a4.875 4.875 0 0 0-6.911 0L1.84 10.27A6.234 6.234 0 0 0 0 14.714c0 1.68.65 3.27 1.84 4.443A6.22 6.22 0 0 0 6.28 21c1.677 0 3.265-.65 4.438-1.843l3.915-3.92a.74.74 0 1 0-1.047-1.048l-3.915 3.92a4.775 4.775 0 0 1-3.392 1.41 4.775 4.775 0 0 1-3.392-1.41 4.786 4.786 0 0 1-1.407-3.395c0-1.283.505-2.493 1.407-3.397l8.823-8.833a3.399 3.399 0 0 1 4.8 0c.65.65.992 1.5.992 2.402 0 .904-.36 1.77-.992 2.403l-8.841 8.852c-.776.776-2.057.776-2.851 0a2.01 2.01 0 0 1 0-2.855l3.933-3.92z"/>
</svg>
