<svg xmlns="http://www.w3.org/2000/svg" width="117" height="42" viewBox="0 0 117 42">
    <path fill="none" fill-rule="evenodd" stroke="#fff" stroke-width="4.2" d="M20.4 3c-9.819.327-17.561 8.467-17.397 18.29.163 9.823 8.173 17.7 17.997 17.7s17.834-7.877 17.997-17.7C39.161 11.467 31.42 3.327 21.6 3h-1.2zm25.2 0c-9.819.327-17.561 8.467-17.397 18.29.163 9.823 8.173 17.7 17.997 17.7s17.834-7.877 17.997-17.7C64.361 11.467 56.62 3.327 46.8 3h-1.2zm25.2 0c-9.819.327-17.561 8.467-17.397 18.29.163 9.823 8.173 17.7 17.997 17.7s17.834-7.877 17.997-17.7C89.561 11.467 81.82 3.327 72 3h-1.2zM96 3c-9.819.327-17.561 8.467-17.397 18.29.163 9.823 8.173 17.7 17.997 17.7s17.834-7.877 17.997-17.7C114.761 11.467 107.02 3.327 97.2 3H96z"/>
</svg>
