<svg xmlns="http://www.w3.org/2000/svg" width="20" height="20" viewBox="0 0 20 20">
    <g fill="#fff" fill-rule="nonzero">
        <path d="M8.256 5.404l2.56-2.584a2 2 0 1 1 1.186 1.076l-.802.81c1.334-.084 2.768.285 4.281 1.105l.609-1.098 3.498 1.94-1.939 3.498-3.498-1.94.555-1c-1.968-1.065-3.64-1.204-5.109-.418l-1.34-1.389zM5.441 8.247L6.863 9.72c-.828 1.6-.742 3.157.24 4.753l1.014-.684 2.237 3.316-3.316 2.237L4.8 16.026l.974-.657C4.92 14 4.576 12.614 4.736 11.232l-.911.92a2 2 0 1 1-1.186-1.076l2.802-2.83zM12.66 2.4a.4.4 0 1 0-.042-.8.4.4 0 0 0 .042.8zM2.021 13.37a.4.4 0 1 0-.042-.798.4.4 0 0 0 .042.798zm5.449 3.75l.663-.447-.448-.664-.663.448.448.663zm9.556-9.145l.387-.7-.7-.387-.387.7.7.387z"/>
        <path d="M4.67 7.449L7.547 4.67l2.78 2.877-2.878 2.78L4.67 7.448zm2.818.615l.576-.556-.556-.575-.575.555.555.576z"/>
    </g>
</svg>
