<svg xmlns="http://www.w3.org/2000/svg" width="20" height="20" viewBox="0 0 20 20">
    <path fill="#FFF" fill-rule="evenodd" d="M12.232 14c-.763 0-2.897-.056-4.683-.135l3.572-3.571 2.9 1.231a.928.928 0 0 0 .725-1.707l-2.21-.94 2.78-2.78a1 1 0 0 0-1.414-1.414l-1.324 1.324-.772-1.322a.967.967 0 0 0-1.67.976l1.028 1.76-5.027 5.026C6.056 10.658 6 8.53 6 7.768 6 4.208 7.3 2 13.768 2a68.4 68.4 0 0 1 4.078.18c.088 1.013.154 2.333.154 3.05C18 14 13.81 14 12.232 14M19.609.392C18.703.143 14.754 0 13.77 0 7.82 0 4 1.821 4 7.768c0 .765.086 4.51.24 6.577L.293 18.293a1 1 0 1 0 1.413 1.413l3.948-3.947c2.067.154 5.812.241 6.577.241 5.947 0 7.768-4.822 7.768-10.768 0-.986-.144-3.935-.39-4.841"/>
</svg>
