<svg xmlns="http://www.w3.org/2000/svg" width="154" height="33" viewBox="0 0 154 33">
    <path fill="#FFF" fill-rule="nonzero" d="M0 7.828v7.829h15.64V0H0v7.828zM17.289.084c-.048.036-.084 3.565-.084 7.829v7.744h15.64V0H25.11c-4.259 0-7.784.036-7.82.084zm125.53 5.158c-1.263.277-2.597 1.218-3.162 2.256-.493.916-.686 1.857-.686 3.317v1.29l-1.166.036-1.178.037-.036 1.35-.036 1.364h2.416V26.35h3.367V14.89h4.929v3.643c.012 4.355.096 5.175.625 6.248.445.869 1.143 1.448 2.056 1.701.77.205 2.44.169 3.307-.072l.745-.217v-2.702l-.685.229c-1.106.374-1.972.145-2.405-.663-.192-.338-.216-.833-.252-4.282l-.036-3.884H154v-2.775h-3.366V7.992l-.325.085c-.192.036-.95.265-1.683.494l-1.359.422v3.185l-2.477-.037-2.476-.036.036-1.411c.048-1.544.204-1.99.853-2.473.445-.325 1.48-.41 2.189-.169l.553.193V6.81c0-1.218-.024-1.435-.205-1.496-.36-.144-2.368-.18-2.921-.072zm-74.873 1.26c-.63.387-.932.917-.932 1.652 0 1.181.896 1.94 2.191 1.832 1.102-.096 1.78-.795 1.78-1.844 0-.723-.243-1.145-.908-1.603-.521-.35-1.586-.374-2.13-.036zm-25.235 9.992v9.87h3.248l-.024-7.583c-.024-4.177 0-7.583.036-7.583s1.432 3.418 3.117 7.583l3.055 7.595 1.204-.036 1.203-.036 2.971-7.499c1.637-4.129 3.008-7.535 3.044-7.57.036-.05.073 3.345.073 7.522v7.607h3.368V6.624h-4.644l-2.755 6.765a1919.206 1919.206 0 0 1-2.984 7.306l-.24.541-1.047-2.648c-.578-1.444-1.877-4.73-2.888-7.306l-1.84-4.658H42.71v9.87zm35.708-4.42c-2.436.554-4.343 2.298-5.159 4.752-.372 1.083-.468 3.453-.192 4.62.432 1.816 1.74 3.572 3.251 4.366 1.872.974 4.667 1.07 6.743.253l.695-.277.06-1.54c.036-.842.048-1.527.036-1.527-.012 0-.372.192-.803.42-2.004 1.12-4.247.927-5.555-.457-.984-1.034-1.368-2.526-1.116-4.282.24-1.672 1.2-2.971 2.592-3.488 1.307-.494 3.167-.265 4.366.553.228.144.444.277.48.277.036 0 .048-.722.024-1.612l-.036-1.612-.803-.265c-1.044-.349-3.408-.445-4.583-.18zm14.342.003c-1.18.169-2.106.854-2.695 1.997l-.3.577-.013-1.239v-1.238l-1.648.036-1.66.036-.037 7.059-.024 7.07h3.357l.036-4.364.036-4.354.337-.721c.53-1.119 1.143-1.684 2.058-1.852.613-.108 1.612.024 2.141.3l.337.18v-1.623c0-1.166-.048-1.647-.144-1.72-.253-.144-1.204-.228-1.781-.144zm7.503-.006c-2.61.59-4.462 2.42-5.124 5.056-.276 1.096-.289 3.299-.012 4.443.565 2.395 2.37 4.213 4.787 4.851 1.034.265 3.14.265 4.246-.024 2.153-.542 3.897-2.059 4.642-4.009a9.4 9.4 0 0 0 .542-3.816c-.12-2.18-.698-3.588-1.925-4.828-.77-.758-1.323-1.107-2.477-1.516-.89-.325-3.56-.41-4.68-.157zm3.536 2.877c.806.361 1.528 1.204 1.816 2.083.18.554.229 1.047.229 2.323-.012 1.409-.048 1.722-.289 2.324-.349.89-.854 1.457-1.624 1.854-.529.277-.77.313-1.696.313-1.19 0-1.84-.205-2.561-.807-1.131-.975-1.648-3.298-1.167-5.345.337-1.396.962-2.24 2.045-2.745.854-.409 2.393-.409 3.247 0zm10.635-2.876c-1.412.398-2.669 1.398-3.16 2.507-.395.905-.395 2.544.012 3.4.49 1.012 1.042 1.446 3.16 2.471 1.065.518 2.035 1.06 2.154 1.193.312.35.395 1.254.144 1.64-.682 1.049-3.22.94-5.123-.23l-.694-.421V25.875l.431.18c1.329.555 3.89.736 5.29.374 1.544-.398 2.681-1.241 3.256-2.423.24-.506.287-.783.287-1.748 0-.94-.036-1.23-.251-1.64-.599-1.144-1.365-1.723-3.52-2.7-1.579-.699-2.01-1.072-2.106-1.796-.227-1.651 2.25-2.133 4.668-.904l.575.302-.036-1.543-.036-1.531-.718-.23c-.982-.313-3.46-.397-4.333-.144zm12.518.077c-1.694.423-3.172 1.45-4.037 2.804-1.25 1.971-1.526 5.187-.65 7.569 1.082 2.914 4.147 4.582 7.62 4.147 1.982-.242 3.063-.738 4.277-1.983 1.466-1.487 2.03-3.023 2.03-5.513 0-2.43-.564-4.026-1.886-5.368-.889-.883-1.658-1.318-2.92-1.644-1.19-.315-3.232-.315-4.434-.012zm3.857 2.877c.673.363 1.298 1.088 1.623 1.922.228.605.276.943.276 2.285.012 2.479-.493 3.64-1.899 4.353-.636.314-.84.35-1.742.35-1.298-.012-2.103-.326-2.776-1.1-.78-.907-1.009-1.656-1.021-3.421 0-2.418.54-3.603 2.007-4.353.72-.362.805-.375 1.898-.338.865.036 1.262.109 1.634.302zm-63.555 4.25v7.1h3.368L70.6 19.3l-.036-7.064-1.648-.036-1.66-.036v7.112zM0 25.172V33h15.64V17.343H0v7.829zm17.229-.037l.036 7.805 7.796.036 7.784.024V17.343h-15.64l.024 7.792z"/>
</svg>
