<svg xmlns="http://www.w3.org/2000/svg" width="20" height="20" viewBox="0 0 20 20">
    <path fill="#FFF" fill-rule="evenodd" d="M18.095 0h-4.761a.953.953 0 1 0 0 1.905h3.81c.525 0 .95.427.95.952v3.81a.953.953 0 0 0 1.906 0V1.905A1.905 1.905 0 0 0 18.095 0zM20 18.095v-4.761a.953.953 0 0 0-1.905 0v3.81a.951.951 0 0 1-.952.95h-3.81a.953.953 0 0 0 0 1.906h4.762A1.905 1.905 0 0 0 20 18.095zM5.715 15.238a.953.953 0 0 0-.953-.953H2.857a.952.952 0 0 0-.952.953v1.905c0 .526.427.952.952.952h1.905a.952.952 0 0 0 .953-.952v-1.905zm1.905 2.857A1.905 1.905 0 0 1 5.715 20h-3.81A1.905 1.905 0 0 1 0 18.095v-3.81c0-1.052.853-1.905 1.905-1.905h3.81c1.052 0 1.905.853 1.905 1.905v3.81zM0 6.666v-4.76C0 .852.853 0 1.905 0h4.761a.953.953 0 0 1 0 1.905h-3.81a.951.951 0 0 0-.95.952v3.81a.953.953 0 0 1-1.906 0z"/>
</svg>
