<svg xmlns="http://www.w3.org/2000/svg" width="20" height="20" viewBox="0 0 20 20">
    <path fill="#FFF" fill-rule="evenodd" d="M13.334 2.413c1.89.671 3.392 2.363 4.063 4.256h-4.063V2.413zm0 6.48H20A8.89 8.89 0 0 0 11.112 0v6.67c0 1.226.993 2.223 2.22 2.223h.002zM7.529 17.65c-2.591-.504-4.67-2.584-5.174-5.176-.843-4.348 2.504-7.2 4.311-7.84v4.258a4.45 4.45 0 0 0 4.446 4.445h4.063c-.95 2.302-3.796 5.06-7.646 4.313zM8.89 2.223C3.397 2.223-.93 7.206.174 12.9c.673 3.467 3.466 6.26 6.931 6.934 5.95 1.158 10.673-3.9 10.673-8.718h-6.666a2.223 2.223 0 0 1-2.223-2.222v-6.67z"/>
</svg>
