<svg xmlns="http://www.w3.org/2000/svg" width="114" height="37" viewBox="0 0 114 37">
    <path fill="#FFF" fill-rule="nonzero" d="M72.995 17.155l.058-.014-.016-.058c-.643-2.246-2.806-3.937-5.037-3.937-.224 0-.45.015-.668.04-2.367.315-4.324 2.303-4.549 4.63l-.01.095s.916-.364 2.077-.508c.39-.05.797-.077 1.241-.077.622 0 1.27.049 1.954.1l.026.002c.738.057 1.502.113 2.206.113.42 0 .778-.02 1.1-.063.676-.084 1.22-.194 1.618-.323zm2.726.989c.022.33.035.512-.306.733-.007.006-.964.682-3.377 1.147-.613.086-1.215.13-1.826.13-.992 0-1.842-.112-2.662-.22-.444-.057-.865-.111-1.285-.144a6.182 6.182 0 0 0-.546-.024c-1.462 0-2.448.46-2.558.514l-.045.022.015.05c.618 1.938 2.745 3.35 4.853 3.35a5.008 5.008 0 0 0 3.851-1.78c.102-.125.206-.181.316-.181.09 0 .188.032.324.102l.3.148c.452.215 1.283.618 1.516.786a.4.4 0 0 1 .176.27.458.458 0 0 1-.103.334c-1.387 1.717-3.24 2.6-5.347 2.868a8.724 8.724 0 0 1-1.033.065c-3.955 0-7.205-2.767-7.727-6.807-.574-4.461 2.373-8.394 6.713-8.953a7.658 7.658 0 0 1 1.03-.068c3.384 0 6.266 2.192 7.343 5.588.143.448.246.913.307 1.386.031.26.06.502.07.652v.032zm37.798-6.769v14.2a.37.37 0 0 1-.366.366h-1.997a.367.367 0 0 1-.364-.367V11.375c0-.203.165-.366.364-.366h1.997c.2 0 .366.163.366.366zm-1.363-5.43a1.804 1.804 0 1 1-1.803 1.805c0-.995.81-1.805 1.803-1.805zM85.72 13.183c-2.783 0-5.046 2.42-5.046 5.393 0 1.467.54 2.796 1.527 3.738.956.916 2.262 1.421 3.671 1.421 2.792 0 4.896-2.255 4.896-5.248 0-2.975-2.218-5.304-5.048-5.304zm-.089 13.136c-2.147-.1-3.952-1.151-4.924-2.096l-.104-.101.001 7.018a.372.372 0 0 1-.37.371h-1.981a.367.367 0 0 1-.366-.368V20.002c0-1.518.163-3.04.32-3.637.927-3.516 3.956-5.88 7.545-5.88 4.41 0 7.865 3.516 7.865 8.002 0 2.172-.79 4.167-2.226 5.623-1.417 1.427-3.324 2.22-5.375 2.22-.128 0-.258-.005-.385-.01zm-35.5-13.136c-2.785 0-5.05 2.42-5.05 5.393 0 1.467.543 2.796 1.53 3.738.956.916 2.256 1.421 3.67 1.421 2.793 0 4.896-2.255 4.896-5.248 0-2.975-2.218-5.304-5.046-5.304zm-.088 13.136c-2.154-.1-3.958-1.151-4.932-2.096l-.1-.101.004 7.018a.372.372 0 0 1-.37.371h-1.987a.367.367 0 0 1-.363-.368V20.002c0-1.518.161-3.04.321-3.637.925-3.516 3.957-5.88 7.545-5.88 4.411 0 7.868 3.516 7.868 8.002 0 2.172-.791 4.167-2.229 5.623-1.414 1.427-3.321 2.22-5.375 2.22a9.13 9.13 0 0 1-.382-.01zm45.482-2.487a.466.466 0 0 1-.158-.306.312.312 0 0 1 .094-.22c.142-.15 1.473-1.202 1.593-1.3a.49.49 0 0 1 .294-.124c.13 0 .228.09.31.164l.016.016c1.153 1.046 2.528 1.656 4.09 1.656 1.913 0 3.078-.983 3.101-1.933.026-.974-.71-1.67-2.02-1.91l-1.994-.382c-3.183-.625-4.94-2.142-4.94-4.278 0-2.696 2.389-4.73 5.552-4.73h.016c2.21.007 3.78.536 5.409 1.828.066.055.194.196.203.37a.413.413 0 0 1-.135.314c-.408.408-1.025.929-1.362 1.178a.608.608 0 0 1-.36.13c-.164 0-.297-.086-.392-.161-1.219-.951-2.171-1.144-3.313-1.144-1.36 0-2.807.703-2.807 2.008 0 1.184 1.584 1.712 2.07 1.846.693.191 1.456.337 2.191.479.311.062.614.118.906.175.91.191 3.876 1.05 3.876 4.195 0 2.274-1.886 4.582-6.108 4.609h-.078c-2.445 0-4.33-.902-6.054-2.48zm-64.303 7.39c-7.088 7.09-18.585 7.09-25.673 0-7.092-7.09-7.092-18.586 0-25.675 7.09-7.09 18.585-7.09 25.672 0 7.091 7.088 7.091 18.584.001 25.675zm1.296-21.999c.34 1.102.526 2.271.526 3.483 0 3.912-1.923 7.351-4.848 9.507-5.086 3.746-12.499 3.75-22.735 6.976a16.807 16.807 0 0 0 12.924 6.042c9.304 0 16.847-7.542 16.847-16.846 0-3.378-1-6.522-2.714-9.162zm-4.03-4.318a16.754 16.754 0 0 0-10.103-3.367C9.081 1.538 1.54 9.082 1.54 18.385a16.77 16.77 0 0 0 3.288 10c11.33-3.3 20.277-12.187 23.661-23.48z"/>
</svg>
