<svg xmlns="http://www.w3.org/2000/svg" width="120" height="40" viewBox="0 0 120 40">
    <path fill="#FFF" fill-rule="nonzero" d="M61.406 23.94c-.697 0-.983-.291-.983-1.081v-.912H57.14v1.677c0 1.53 1.761 2.51 4.318 2.51 2.836 0 3.98-1.339 4.2-2.4.035-.247.06-.648.06-.986 0-.466-.013-.801-.077-1.256-.126-1.519-1.53-2.33-2.797-2.825-1.794-.703-2.276-1.098-2.41-1.728-.058-.185-.046-.567 0-.757.096-.317.511-.557.998-.557.557 0 1.007.377 1.007.846v.988h3.081v-1.473c0-1.907-2.17-2.498-4.05-2.494-2.014.005-3.652.619-3.999 2.194-.07.374-.113.85-.113 1.353 0 .912.137 1.699.334 2.059.204.382.928 1.122 2.76 1.96 1.79.82 1.884 1.11 1.992 1.508a1.08 1.08 0 0 1-1.039 1.375zm24.552-10.057H82.13v11.862h3.059l-.177-7.301h.228l3.386 7.3h3.64V13.884h-3.059l.176 7.3h-.227l-3.198-7.3zm-7.9 9.161v-9.161h-3.48v9.247c0 .424-.399.769-.881.769s-.883-.345-.883-.769v-9.247h-3.48v9.161c0 1.714 1.96 3.092 4.363 3.092 2.4 0 4.361-1.377 4.361-3.092zm-31.015-2.627h-.264l-1.1-6.534h-5.213l-.248 11.862h3.054V16.62h.298l1.786 9.125h3.103l1.788-9.125h.297v9.125h3.053l-.248-11.862h-5.36l-.953 6.534h.007zm-14.569-3.879l1.288 9.207h3.378l-2.185-11.862H29.77l-2.184 11.862h3.376l1.289-9.207h.224zM56.98 2.98C90.075-2.817 118.256.1 119.922 9.502c.846 4.758-5.27 10.268-15.808 15.298.35-.418.539-.943.539-1.466v-4.141h-4.092v1.616h.798v2.329c0 .424-.402.768-.889.768-.484 0-.886-.344-.886-.768v-6.792c0-.424.402-.767.886-.767.487 0 .89.343.89.767v1.117h3.293v-.805c0-2.077-1.177-3.168-4.183-3.168-2.955 0-3.986 1.475-3.986 3.033v6.81c0 1.559 1.791 2.81 3.986 2.81.24 0 .478-.014.706-.043l-.005.042c-10.014 4.37-23.317 8.278-38.15 10.878C29.927 42.817 1.744 39.899.078 30.497c-.86-4.842 5.487-10.46 16.368-15.564-.062.169-.15.46-.186.665a7.93 7.93 0 0 0-.11 1.353c0 .914.134 1.7.326 2.06.197.382.819 1.209 2.605 2.047 1.749.82 1.839 1.11 1.944 1.508.027.092.04.191.04.293 0 .598-.472 1.082-1.053 1.082-.681 0-.96-.292-.96-1.082v-.912H15.85v1.677c0 1.53 1.718 2.51 4.212 2.51 2.768 0 3.885-1.339 4.098-2.4.035-.247.06-.648.06-.986a8.43 8.43 0 0 0-.074-1.256c-.125-1.519-1.494-2.33-2.73-2.825-1.75-.703-2.22-1.098-2.351-1.728-.058-.185-.045-.567 0-.757.091-.317.498-.557.973-.557.542 0 .982.377.982.846v.988h3.007v-1.473c0-1.907-2.117-2.498-3.952-2.494-.079 0-.37.02-.448.02C29.545 9.283 42.537 5.511 56.98 2.98z"/>
</svg>
