<svg xmlns="http://www.w3.org/2000/svg" width="118" height="25" viewBox="0 0 118 25">
    <path fill="#FFF" fill-rule="nonzero" d="M18.561.604c0-.402.199-.604.595-.604h4.535v14.612C23.691 22.31 18.859 25 11.846 25 4.832 25 0 22.309 0 14.612V.604C0 .202.199 0 .595 0H5.13v14.386c0 4.603 2.007 6.514 6.716 6.514 4.708 0 6.715-1.911 6.715-6.514V.604zm65.741 3.395H70.5v6.162h11.523c.199 0 .273.1.199.302l-1.264 3.169c-.124.277-.297.402-.67.402h-6.765c-2.205 0-3.023.679-3.023 2.188v4.351h15.587c.199 0 .273.1.199.302l-1.314 3.295c-.124.276-.297.402-.669.402H67.278c-1.314 0-1.81-.452-1.81-1.459V1.71c0-1.182.645-1.71 2.355-1.71h18.263c.199 0 .273.101.199.302l-1.314 3.294c-.124.277-.297.403-.669.403zm-36.91 16.625c2.85 0 3.643-1.057 3.643-3.32 0-2.264-.793-3.37-3.642-3.37h-5.925c-2.206 0-3.024.678-3.024 2.187v4.503h8.949zM38.445 3.949v6.288h8.007c2.676 0 3.42-1.024 3.42-3.145 0-2.12-.744-3.143-3.42-3.143h-8.007zm13.707 7.67c2.725.73 3.964 3.22 3.964 6.163 0 4.904-3.42 6.79-8.202 6.79H35.225c-1.313 0-1.809-.452-1.809-1.459V1.71C33.416.528 34.06 0 35.77 0h10.31c4.51 0 8.87.805 8.87 6.237 0 2.34-.817 4.326-2.8 5.383zm56.324-.226c3.147 0 3.841-1.207 3.841-3.722 0-2.49-.694-3.722-3.84-3.722h-8.426v7.444h8.425zm9.467 12.752c.1.15.1.427-.223.427h-4.61c-.371 0-.52-.15-.67-.402l-4.905-8.954h-4.46c-2.207 0-3.024.68-3.024 2.188v7.168h-4.436c-.397 0-.595-.201-.595-.603V1.71c0-1.182.645-1.71 2.354-1.71h10.359c6.021 0 9.665 1.61 9.665 7.57 0 4.603-2.181 6.414-4.882 7.118l5.427 9.457z"/>
</svg>
