<?xml version="1.0" standalone="no"?>
<!DOCTYPE svg PUBLIC "-//W3C//DTD SVG 1.1//EN" "http://www.w3.org/Graphics/SVG/1.1/DTD/svg11.dtd" >
<svg xmlns="http://www.w3.org/2000/svg">
<metadata>Generated by IcoMoon</metadata>
<defs>
<font id="icomoon" horiz-adv-x="1024">
<font-face units-per-em="1024" ascent="960" descent="-64" />
<missing-glyph horiz-adv-x="1024" />
<glyph unicode="&#x20;" horiz-adv-x="512" d="" />
<glyph unicode="&#xe900;" glyph-name="attach-icon" horiz-adv-x="926" d="M426.715 503.296c6.543 6.537 10.591 15.572 10.591 25.551 0 19.947-16.17 36.118-36.118 36.118-9.968 0-18.992-4.038-25.527-10.567v0l-190.903-191.147c-30.956-30.586-50.129-73.038-50.129-119.969 0-0.269 0.001-0.539 0.002-0.808v0.042c0-45.787 17.554-88.064 50.127-120.637 66.853-66.95 175.055-66.95 241.079 0l431.153 431.592c42.929 42.848 69.487 102.086 69.487 167.527 0 0.247 0 0.493-0.001 0.74v-0.038c0 63.439-24.625 123.368-69.486 168.229-43.058 43.262-102.651 70.033-168.497 70.033s-125.439-26.772-168.488-70.024l-0.009-0.009-430.275-430.714c-55.421-55.078-89.724-131.35-89.724-215.635 0-0.374 0.001-0.747 0.002-1.121v0.058c0-81.92 31.695-159.451 89.722-216.649 54.987-55.504 131.228-89.87 215.495-89.87 0.354 0 0.708 0.001 1.062 0.002h-0.055c81.774 0 159.208 31.695 216.405 89.868l190.903 191.147c6.543 6.537 10.591 15.572 10.591 25.551 0 19.947-16.17 36.118-36.118 36.118-9.968 0-18.992-4.038-25.527-10.567v0l-190.903-191.147c-42.19-42.468-100.624-68.754-165.197-68.754-0.071 0-0.143 0-0.214 0h0.011c-0.060 0-0.132 0-0.203 0-64.573 0-123.007 26.286-165.185 68.742l-0.013 0.013c-42.384 42.258-68.608 100.704-68.608 165.275 0 0.096 0 0.191 0 0.287v-0.015c0 62.562 24.625 121.563 68.608 165.644l430.226 430.714c29.976 29.893 71.344 48.376 117.029 48.376s87.052-18.483 117.032-48.38l-0.004 0.004c31.695-31.695 48.372-73.143 48.372-117.126 0-44.081-17.554-86.309-48.372-117.175l-431.104-431.64c-37.839-37.839-100.303-37.839-139.020 0-17.918 17.766-29.011 42.391-29.011 69.608s11.093 51.841 29.004 69.601l0.007 0.007 191.781 191.147z" />
<glyph unicode="&#xe901;" glyph-name="coffe-icon" horiz-adv-x="623" d="M277.549 654.803v305.197h165.621v-66.783h-98.838v-238.414h276.48l-119.007-701.663h-363.876l-137.928 701.663h277.549zM127.288 353.391l65.581-333.468h252.527l56.543 333.468h-374.606zM105.427 464.696h415.388l20.925 123.325h-460.488l24.22-123.325z" />
<glyph unicode="&#xe902;" glyph-name="combined-shape" horiz-adv-x="1502" d="M1192.96 538.931l-324.471 324.54 96.529 96.529 489.335-489.335-489.335-489.335-96.529 96.529 324.471 324.54h-1192.96v136.533h1192.96z" />
<glyph unicode="&#xe903;" glyph-name="complate-icon" d="M0 960h1024v-1024h-1024v1024zM76.8 883.2v-870.4h870.4v870.4h-870.4zM399.462 451.328l80.64-80.691 193.126 193.126 54.272-54.272-247.398-247.45-134.963 134.963 54.272 54.272z" />
<glyph unicode="&#xe904;" glyph-name="coursore" d="M592.842 448c0-44.648-36.194-80.842-80.842-80.842s-80.842 36.194-80.842 80.842c0 44.648 36.194 80.842 80.842 80.842s80.842-36.194 80.842-80.842z" />
<glyph unicode="&#xe905;" glyph-name="cut-icon" d="M615.424 533.299c0.003 0.153 0.005 0.334 0.005 0.516 0 14.827-11.891 26.876-26.656 27.132h-0.024c-14.789-0.256-26.68-12.306-26.68-27.132 0-0.181 0.002-0.362 0.005-0.543v0.027c0-15.258 11.93-27.648 26.624-27.648 14.812 0.228 26.731 12.288 26.731 27.133 0 0.181-0.002 0.362-0.005 0.542v-0.027zM469.146 458.035l-110.746-163.635h307.814l-84.173 107.674-37.222-56.73-75.674 112.742zM768-64c28.277 0 51.2 22.923 51.2 51.2v0 51.2c0 28.277-22.923 51.2-51.2 51.2s-51.2-22.923-51.2-51.2v0-51.2c0-28.277 22.923-51.2 51.2-51.2v0zM819.2 243.2h-460.8c-28.277 0-51.2 22.923-51.2 51.2v0 256c0 28.277-22.923 51.2-51.2 51.2s-51.2-22.923-51.2-51.2v0-307.2c0-56.554 45.846-102.4 102.4-102.4v0h665.6c28.277 0 51.2 22.923 51.2 51.2s-22.923 51.2-51.2 51.2v0h-153.6zM307.2 652.8h358.4c28.277 0 51.2-22.923 51.2-51.2v0-256c0-28.277 22.923-51.2 51.2-51.2s51.2 22.923 51.2 51.2v0 307.2c0 56.554-45.846 102.4-102.4 102.4v0h-665.6c-28.277 0-51.2-22.923-51.2-51.2s22.923-51.2 51.2-51.2v0h256zM307.2 908.8v-51.2c0-28.277-22.923-51.2-51.2-51.2s-51.2 22.923-51.2 51.2v0 51.2c0 28.277 22.923 51.2 51.2 51.2s51.2-22.923 51.2-51.2v0z" />
<glyph unicode="&#xe906;" glyph-name="design-icon" d="M422.707 683.315l131.072 132.301c-5.677 12.33-8.988 26.754-8.988 41.951 0 56.554 45.846 102.4 102.4 102.4s102.4-45.846 102.4-102.4c0-56.554-45.846-102.4-102.4-102.4-11.698 0-22.938 1.962-33.409 5.574l0.72-0.216-41.062-41.472c68.301 4.301 141.722-14.592 219.187-56.576l31.181 56.218 179.098-99.328-99.277-179.098-179.098 99.328 28.416 51.2c-100.762 54.528-186.368 61.645-261.581 21.402l-68.608 71.117zM278.579 537.754l72.806-75.418c-42.394-81.92-37.99-161.638 12.288-243.354l51.917 35.021 114.534-169.779-169.779-114.534-114.586 169.779 49.869 33.638c-43.725 70.093-61.338 141.056-53.146 211.814l-46.643-47.104c5.677-12.33 8.988-26.754 8.988-41.951 0-56.554-45.846-102.4-102.4-102.4s-102.4 45.846-102.4 102.4c0 56.554 45.846 102.4 102.4 102.4 11.698 0 22.938-1.962 33.409-5.574l-0.72 0.216 143.462 144.896zM648.192 837.12c10.854 0.587 19.433 9.532 19.433 20.48 0 11.326-9.182 20.508-20.508 20.508-0.378 0-0.754-0.010-1.127-0.030l0.052 0.002c-10.854-0.587-19.433-9.532-19.433-20.48 0-11.326 9.182-20.508 20.508-20.508 0.378 0 0.754 0.010 1.127 0.030l-0.052-0.002zM103.475 275.456c11.264 0.061 20.372 9.207 20.372 20.48 0 11.311-9.169 20.48-20.48 20.48-0.719 0-1.43-0.037-2.13-0.109l0.088 0.007c-10.397-1.073-18.437-9.786-18.437-20.378 0-11.311 9.169-20.48 20.48-20.48 0.038 0 0.076 0 0.114 0h-0.006zM382.464 83.456l33.946 22.886-22.938 33.997-33.946-22.938 22.938-33.946zM871.731 551.68l19.814 35.84-35.84 19.814-19.814-35.84 35.84-19.814zM239.104 578.611l147.302 142.285 142.336-147.302-147.354-142.336-142.285 147.405zM383.386 547.123l29.491 28.467-28.467 29.44-29.44-28.416 28.416-29.491z" />
<glyph unicode="&#xe907;" glyph-name="happy-icon" d="M307.2 448c-56.554 0-102.4 45.846-102.4 102.4s45.846 102.4 102.4 102.4v0c56.554 0 102.4-45.846 102.4-102.4s-45.846-102.4-102.4-102.4v0zM716.8 448c-56.554 0-102.4 45.846-102.4 102.4s45.846 102.4 102.4 102.4v0c56.554 0 102.4-45.846 102.4-102.4s-45.846-102.4-102.4-102.4v0zM512-64c-282.778 0-512 229.222-512 512s229.222 512 512 512 512-229.222 512-512-229.222-512-512-512zM512 12.8c240.354 0 435.2 194.846 435.2 435.2s-194.846 435.2-435.2 435.2v0c-240.354 0-435.2-194.846-435.2-435.2s194.846-435.2 435.2-435.2v0zM271.206 325.222c-1.531 3.986-2.418 8.596-2.418 13.414 0 21.214 17.198 38.412 38.412 38.412 16.396 0 30.393-10.273 35.905-24.734l0.088-0.264c33.28-89.293 87.654-130.662 168.806-130.662s135.578 41.37 168.806 130.662c5.6 14.724 19.597 24.998 35.994 24.998 21.214 0 38.412-17.198 38.412-38.412 0-4.818-0.887-9.429-2.507-13.678l0.088 0.264c-44.032-118.221-126.157-180.634-240.794-180.634s-196.762 62.464-240.794 180.634z" />
<glyph unicode="&#xe908;" glyph-name="leaf-icon" d="M626.278 243.2c-39.066 0-148.326 2.867-239.77 6.912l182.886 182.835 148.48-63.027c5.003-1.955 10.794-3.088 16.851-3.088 26.241 0 47.514 21.273 47.514 47.514 0 18.878-11.010 35.185-26.959 42.85l-0.285 0.123-113.152 48.128 142.336 142.336c8.892 9.198 14.372 21.744 14.372 35.569 0 28.277-22.923 51.2-51.2 51.2-13.826 0-26.371-5.48-35.584-14.386l-67.775-67.775-39.526 67.686c-8.751 14.778-24.612 24.532-42.752 24.532-27.348 0-49.518-22.17-49.518-49.518 0-9.208 2.513-17.829 6.892-25.215l-0.126 0.229 52.634-90.112-257.382-257.331c-4.147 91.648-7.014 200.602-7.014 239.616 0 182.272 66.56 295.322 397.722 295.322 75.887-1.109 148.579-4.436 220.661-9.945l-11.867 0.729c4.506-51.866 7.885-119.45 7.885-156.16 0-449.024-214.528-449.024-295.322-449.024zM1003.981 939.93c-46.387 12.749-248.576 20.070-298.957 20.070-304.64 0-500.224-93.235-500.224-397.722 0-39.168 4.403-230.912 12.288-336.742l-202.086-202.138c-10.175-9.387-16.527-22.788-16.527-37.672 0-28.277 22.923-51.2 51.2-51.2 14.884 0 28.285 6.351 37.64 16.492l0.032 0.035 202.138 202.086c105.83-7.885 297.574-12.339 336.742-12.339 304.486 0 397.722 246.886 397.722 551.322 0 50.483-7.373 201.472-19.968 247.859z" />
<glyph unicode="&#xe909;" glyph-name="location-icon" horiz-adv-x="768" d="M377.408 960c-203.393-0.182-368.23-164.997-368.448-368.363v-0.021c0-52.992 10.88-103.552 32.256-150.4 92.096-201.472 268.672-414.272 320.64-474.688 3.777-4.369 9.328-7.117 15.52-7.117s11.743 2.748 15.498 7.091l0.022 0.026c51.84 60.416 228.48 273.152 320.64 474.752 20.333 43.646 32.196 94.753 32.196 148.631 0 0.622-0.002 1.243-0.005 1.864v-0.095c-0.291 203.3-165.020 368.029-368.292 368.32h-0.028zM377.408 400.32c-105.641 0.109-191.251 85.719-191.36 191.35v0.010c0.109 105.641 85.719 191.251 191.35 191.36h0.010c105.641-0.109 191.251-85.719 191.36-191.35v-0.010c-0.109-105.641-85.719-191.251-191.35-191.36h-0.010z" />
<glyph unicode="&#xe90a;" glyph-name="network-icon" d="M460.8 499.2h409.6c28.277 0 51.2-22.923 51.2-51.2s-22.923-51.2-51.2-51.2v0h-409.6c-28.277 0-51.2 22.923-51.2 51.2s22.923 51.2 51.2 51.2v0zM460.8 140.8h409.6c28.277 0 51.2-22.923 51.2-51.2s-22.923-51.2-51.2-51.2v0h-409.6c-28.277 0-51.2 22.923-51.2 51.2s22.923 51.2 51.2 51.2v0zM460.8 857.6h409.6c28.277 0 51.2-22.923 51.2-51.2s-22.923-51.2-51.2-51.2v0h-409.6c-28.277 0-51.2 22.923-51.2 51.2s22.923 51.2 51.2 51.2v0zM307.2 755.2c0-56.554 45.846-102.4 102.4-102.4v0h512c56.554 0 102.4 45.846 102.4 102.4v0 102.4c0 56.554-45.846 102.4-102.4 102.4v0h-512c-56.554 0-102.4-45.846-102.4-102.4v0h-204.8v102.4h-102.4v-819.2c0-56.554 45.846-102.4 102.4-102.4 0.018 0 0.036 0 0.054 0h204.746c0-56.554 45.846-102.4 102.4-102.4v0h512c56.554 0 102.4 45.846 102.4 102.4v0 102.4c0 56.554-45.846 102.4-102.4 102.4v0h-512c-56.554 0-102.4-45.846-102.4-102.4v0h-153.805c-28.164 0-50.995 22.831-50.995 50.995v0 205.005h204.8c0-56.554 45.846-102.4 102.4-102.4v0h512c56.554 0 102.4 45.846 102.4 102.4v0 102.4c0 56.554-45.846 102.4-102.4 102.4v0h-512c-56.554 0-102.4-45.846-102.4-102.4v0h-204.8v256h204.8z" />
<glyph unicode="&#xe90b;" glyph-name="omplement-icon" d="M926.464 960h-243.763c-0.471 0.016-1.025 0.026-1.58 0.026-26.948 0-48.794-21.846-48.794-48.794s21.846-48.794 48.794-48.794c0.556 0 1.109 0.009 1.661 0.028l-0.080-0.002h195.072c26.88 0 48.64-21.862 48.64-48.742v-195.072c0-26.948 21.846-48.794 48.794-48.794s48.794 21.846 48.794 48.794v0 243.814c0 53.868-43.668 97.536-97.536 97.536v0zM1024 33.536v243.763c-0.878 26.259-22.376 47.213-48.768 47.213s-47.89-20.954-48.766-47.133l-0.002-0.080v-195.072c-0.029-26.869-21.818-48.64-48.691-48.64-0.018 0-0.036 0-0.054 0h-195.069c-26.948 0-48.794-21.846-48.794-48.794s21.846-48.794 48.794-48.794h243.814c53.868 0 97.536 43.668 97.536 97.536v0zM292.608 179.814c0 26.948-21.846 48.794-48.794 48.794h-97.536c-26.92 0-48.742-21.823-48.742-48.742 0-0.018 0-0.036 0-0.054v0.003-97.536c0-26.931 21.862-48.742 48.742-48.742h97.536c0.015 0 0.033 0 0.051 0 26.92 0 48.742 21.823 48.742 48.742v0 97.536zM390.144 33.536c0-53.868-43.668-97.536-97.536-97.536h-195.072c-53.868 0-97.536 43.668-97.536 97.536v0 195.072c0 53.862 43.674 97.536 97.536 97.536h195.072c53.862 0 97.536-43.674 97.536-97.536v-195.072zM0 618.701v243.712c0 53.965 43.674 97.587 97.536 97.587h243.763c26.259-0.878 47.213-22.376 47.213-48.768s-20.954-47.89-47.133-48.766l-0.080-0.002h-195.072c-26.869-0.029-48.64-21.818-48.64-48.691 0-0.018 0-0.036 0-0.054v0.003-195.072c0-26.948-21.846-48.794-48.794-48.794s-48.794 21.846-48.794 48.794v0z" />
<glyph unicode="&#xe90c;" glyph-name="path-2" d="M682.701 836.454c96.768-34.355 173.67-120.986 208.026-217.907h-208.026v217.907zM682.701 504.678h341.299c0 0.046 0 0.1 0 0.154 0 251.346-203.727 455.11-455.060 455.168h-0.006v-341.504c0-62.771 50.842-113.818 113.664-113.818h0.102zM385.485 56.32c-132.659 25.805-239.104 132.301-264.909 265.011-43.162 222.618 128.205 368.64 220.723 401.408v-218.010c0.146-125.651 101.981-227.468 227.624-227.584h208.037c-48.64-117.862-194.355-259.072-391.475-220.826zM455.168 846.182c-281.242 0-502.784-255.13-446.259-546.662 34.458-177.51 177.459-320.512 354.867-355.021 304.64-59.29 546.458 199.68 546.458 446.362h-341.299c-62.842 0-113.788 50.929-113.818 113.764v341.507z" />
<glyph unicode="&#xe90d;" glyph-name="path-9" horiz-adv-x="683" d="M8.875 856.747v-850.887c0.024-31.401 25.485-56.846 56.889-56.846 13.274 0 25.487 4.546 35.165 12.167l-0.122-0.092 545.678 427.577c13.317 10.51 21.787 26.65 21.787 44.768 0 18.22-8.565 34.439-21.889 44.851l-0.126 0.095-545.678 423.253c-9.516 7.421-21.643 11.898-34.816 11.898-31.402 0-56.861-25.442-56.889-56.837v-0.003z" />
<glyph unicode="&#xe90e;" glyph-name="perfect-icon" d="M768 499.2h-512c-28.277 0-51.2 22.923-51.2 51.2s22.923 51.2 51.2 51.2h512c28.277 0 51.2-22.923 51.2-51.2s-22.923-51.2-51.2-51.2v0zM921.6 396.8c0-28.282-22.918-51.2-51.2-51.2h-716.8c-28.282 0-51.2 22.918-51.2 51.2v307.2c0 28.282 22.918 51.2 51.2 51.2h716.8c28.282 0 51.2-22.918 51.2-51.2v-307.2zM921.6 857.6h-358.4v51.2c0 28.277-22.923 51.2-51.2 51.2s-51.2-22.923-51.2-51.2v0-51.2h-358.4c-56.554 0-102.4-45.846-102.4-102.4v0-409.6c0-56.564 45.836-102.4 102.4-102.4h245.419l-109.373-234.545c-2.555-5.877-4.041-12.723-4.041-19.917 0-28.223 22.879-51.102 51.102-51.102 19.722 0 36.835 11.172 45.354 27.533l0.134 0.283 129.804 277.748v-256.146c0-28.184 22.918-51.054 51.054-51.054h0.293c28.184 0 51.054 22.918 51.054 51.054v256.146l129.707-277.748c8.337-17.575 25.936-29.511 46.324-29.511 28.229 0 51.113 22.884 51.113 51.113 0 7.841-1.766 15.271-4.921 21.911l0.132-0.31-109.373 234.545h245.419c56.554 0 102.4 45.846 102.4 102.4v0 409.6c0 56.554-45.846 102.4-102.4 102.4v0z" />
<glyph unicode="&#xe90f;" d="M1024 448c0-282.77-229.23-512-512-512s-512 229.23-512 512c0 282.77 229.23 512 512 512s512-229.23 512-512z" />
<glyph unicode="&#xe910;" d="M916.211 448c0-223.239-180.971-404.211-404.211-404.211s-404.211 180.971-404.211 404.211c0 223.239 180.971 404.211 404.211 404.211s404.211-180.971 404.211-404.211z" />
<glyph unicode="&#xe911;" d="M446.733 544.808v-201.526c0.006-7.437 6.036-13.464 13.474-13.464 3.144 0 6.036 1.077 8.329 2.882l-0.029-0.022 129.24 101.268c3.154 2.489 5.16 6.312 5.16 10.603 0 4.315-2.029 8.157-5.184 10.623l-0.030 0.022-129.24 100.244c-2.254 1.758-5.126 2.818-8.246 2.818-7.437 0-13.467-6.026-13.474-13.462v-0.001z" />
<glyph unicode="&#xe912;" glyph-name="triangle" horiz-adv-x="1180" d="M0 960h1179.826l-587.576-1024z" />
<glyph unicode="&#xe913;" glyph-name="years-icon" horiz-adv-x="973" d="M48.64 857.446h48.128v102.554h98.509v-102.554h241.664v102.554h98.304v-102.554h242.995v102.554h97.792v-102.554h48.128c26.88 0 48.64-22.886 48.64-51.2v-819.046c0-28.262-21.76-51.2-48.64-51.2h-875.52c-26.88 0-48.64 22.938-48.64 51.2v819.098c0 28.262 21.76 51.2 48.64 51.2zM72.96 684.288v-671.488h826.88v671.488h-826.88zM519.066 192v258.611h-109.466v48.589h153.6v-307.2h-44.134z" />
</font>
</defs>
</svg>
