# 3ds Max Wavefront OBJ Exporter v0.97b - (c)2007 guruware
# File Created: 17.09.2019 15:36:40

mtllib ????.mtl

#
# object Box004
#

v  -14.2541 0.0000 -2.7434
v  -14.2541 0.0000 -6.7434
v  -10.2541 0.0000 -6.7434
v  -10.2541 0.0000 -2.7434
v  -14.2541 0.0000 -10.7434
v  -10.2541 0.0000 -10.7434
v  -22.2541 0.0000 -10.7434
v  -22.2541 0.0000 -14.7434
v  -18.2541 0.0000 -14.7434
v  -18.2541 0.0000 -10.7434
v  -14.2541 0.0000 -14.7434
v  -10.2541 0.0000 -14.7434
v  -6.2541 0.0000 -14.7434
v  -6.2541 0.0000 -10.7434
v  -2.2541 0.0000 -14.7434
v  -2.2541 0.0000 -10.7434
v  -14.2541 0.0000 -18.7434
v  -10.2541 0.0000 -18.7434
v  -14.2541 0.0000 -22.7434
v  -10.2541 0.0000 -22.7434
v  -14.2541 4.0000 -2.7434
v  -10.2541 4.0000 -2.7434
v  -10.2541 4.0000 -6.7434
v  -14.2541 4.0000 -6.7434
v  -10.2541 4.0000 -10.7434
v  -14.2541 4.0000 -10.7434
v  -22.2541 4.0000 -10.7434
v  -18.2541 4.0000 -10.7434
v  -18.2541 4.0000 -14.7434
v  -22.2541 4.0000 -14.7434
v  -14.2541 4.0000 -14.7434
v  -10.2541 4.0000 -14.7434
v  -6.2541 4.0000 -10.7434
v  -6.2541 4.0000 -14.7434
v  -2.2541 4.0000 -10.7434
v  -2.2541 4.0000 -14.7434
v  -10.2541 4.0000 -18.7434
v  -14.2541 4.0000 -18.7434
v  -10.2541 4.0000 -22.7434
v  -14.2541 4.0000 -22.7434
# 40 vertices

vn 0.0000 -0.7071 0.7071
vn 0.0000 -1.0000 -0.0000
vn -0.7071 -0.7071 -0.0000
vn 0.7071 -0.7071 -0.0000
vn 0.0000 -0.7071 -0.7071
vn -0.5774 0.5774 0.5774
vn 0.5774 0.5774 0.5774
vn 0.7071 0.7071 -0.0000
vn -0.7071 0.7071 -0.0000
vn 0.3015 0.9045 0.3015
vn -0.3015 0.9045 0.3015
vn 0.0000 0.7071 0.7071
vn 0.0000 0.7071 -0.7071
vn -0.5774 0.5774 -0.5774
vn -0.3015 0.9045 -0.3015
vn 0.3015 0.9045 -0.3015
vn 0.5774 0.5774 -0.5774
vn -1.0000 0.0000 -0.0000
vn -0.7071 0.0000 0.7071
vn 0.0000 0.0000 1.0000
vn 1.0000 0.0000 -0.0000
vn 0.7071 0.0000 0.7071
vn 0.0000 0.0000 -1.0000
vn -0.7071 0.0000 -0.7071
vn 0.7071 0.0000 -0.7071
# 25 vertex normals

vt -7.0000 0.0000 0.0000
vt -7.0000 4.0000 0.0000
vt -11.0000 4.0000 0.0000
vt -11.0000 0.0000 0.0000
vt -7.0000 8.0000 0.0000
vt -11.0000 8.0000 0.0000
vt 1.0000 8.0000 0.0000
vt 1.0000 12.0000 0.0000
vt -3.0000 12.0000 0.0000
vt -3.0000 8.0000 0.0000
vt -7.0000 12.0000 0.0000
vt -11.0000 12.0000 0.0000
vt -15.0000 12.0000 0.0000
vt -15.0000 8.0000 0.0000
vt -19.0000 12.0000 0.0000
vt -19.0000 8.0000 0.0000
vt -7.0000 16.0000 0.0000
vt -11.0000 16.0000 0.0000
vt -7.0000 20.0000 0.0000
vt -11.0000 20.0000 0.0000
vt 8.0000 0.0000 0.0000
vt 12.0000 0.0000 0.0000
vt 12.0000 4.0000 0.0000
vt 8.0000 4.0000 0.0000
vt 12.0000 8.0000 0.0000
vt 8.0000 8.0000 0.0000
vt 0.0000 8.0000 0.0000
vt 4.0000 8.0000 0.0000
vt 4.0000 12.0000 0.0000
vt 0.0000 12.0000 0.0000
vt 8.0000 12.0000 0.0000
vt 12.0000 12.0000 0.0000
vt 16.0000 8.0000 0.0000
vt 16.0000 12.0000 0.0000
vt 20.0000 8.0000 0.0000
vt 20.0000 12.0000 0.0000
vt 12.0000 16.0000 0.0000
vt 8.0000 16.0000 0.0000
vt 12.0000 20.0000 0.0000
vt 8.0000 20.0000 0.0000
# 40 texture coords

o Box004
g Box004
usemtl wire_088144225
s 2
f 1/1/1 2/2/2 3/3/2 4/4/1 
f 2/2/2 5/5/2 6/6/2 3/3/2 
f 7/7/3 8/8/3 9/9/2 10/10/2 
f 10/10/2 9/9/2 11/11/2 5/5/2 
f 5/5/2 11/11/2 12/12/2 6/6/2 
f 6/6/2 12/12/2 13/13/2 14/14/2 
f 14/14/2 13/13/2 15/15/4 16/16/4 
f 11/11/2 17/17/2 18/18/2 12/12/2 
f 17/17/2 19/19/5 20/20/5 18/18/2 
s 4
f 21/21/6 22/22/7 23/23/8 24/24/9 
f 24/24/9 23/23/8 25/25/10 26/26/11 
f 27/27/6 28/28/12 29/29/13 30/30/14 
f 28/28/12 26/26/11 31/31/15 29/29/13 
f 26/26/11 25/25/10 32/32/16 31/31/15 
f 25/25/10 33/33/12 34/34/13 32/32/16 
f 33/33/12 35/35/7 36/36/17 34/34/13 
f 31/31/15 32/32/16 37/37/8 38/38/9 
f 38/38/9 37/37/8 39/39/17 40/40/14 
s 8
f 1/21/1 4/22/1 22/23/7 21/24/6 
s 16
f 16/21/4 15/22/4 36/23/17 35/24/7 
s 32
f 20/21/5 19/22/5 40/23/14 39/24/17 
s 64
f 8/21/3 7/22/3 27/23/6 30/24/14 
s off
f 21/21/6 24/24/9 2/24/18 1/21/18 
f 24/24/9 26/26/11 5/26/19 2/24/18 
f 26/26/11 28/28/12 10/28/20 5/26/19 
f 28/28/12 27/27/6 7/27/20 10/28/20 
f 23/23/8 22/22/7 4/22/21 3/23/21 
f 35/35/7 33/33/12 14/33/20 16/35/20 
f 33/33/12 25/25/10 6/25/22 14/33/20 
f 25/25/10 23/23/8 3/23/21 6/25/22 
f 30/30/14 29/29/13 9/29/23 8/30/23 
f 29/29/13 31/31/15 11/31/24 9/29/23 
f 31/31/15 38/38/9 17/38/18 11/31/24 
f 38/38/9 40/40/14 19/40/18 17/38/18 
f 32/32/16 34/34/13 13/34/23 12/32/25 
f 34/34/13 36/36/17 15/36/23 13/34/23 
f 39/39/17 37/37/8 18/37/21 20/39/21 
f 37/37/8 32/32/16 12/32/25 18/37/21 
# 38 polygons

