<svg xmlns="http://www.w3.org/2000/svg" width="150" height="36" viewBox="0 0 150 36">
    <path fill="#FFF" fill-rule="nonzero" d="M70.917 21.919l-1.934 5.373c0 .216-.215.216-.215.216H65.76c-.216 0-.216 0-.216-.216 1.72-4.513 4.298-12.25 6.232-17.407 0-.214.216-.645.216-1.72 0-.214 0-.214.215-.214h4.083c.215-.215.215 0 .215 0 2.148 6.232 4.727 12.894 6.876 19.127 0 .214 0 .214-.214.214h-3.44c-.214 0-.214 0-.214-.214l-1.935-5.373h-6.66v.214zm6.017-3.008c-.644-1.934-2.15-6.017-2.578-8.166-.43 1.934-1.72 5.373-2.58 8.166h5.158zm8.382 1.29c0-4.299 3.223-7.737 8.38-7.737.646 0 1.29 0 1.72.215V6.232c0-.215 0-.215.215-.215h3.223c.214 0 .214 0 .214.215v19.555c0 .216 0 .216-.214.216-1.935.858-4.084 1.505-6.017 1.505-4.514.214-7.521-2.15-7.521-7.307zm9.884-4.514c-.43-.215-1.074-.215-1.719-.215-2.793 0-4.511 1.72-4.511 4.729 0 3.437 1.932 4.728 4.298 4.728.644 0 1.502-.216 2.149-.216v-9.026H95.2zm21.92 4.3c0 4.726-3.009 7.735-7.307 7.735-5.156 0-7.305-3.868-7.305-7.521 0-4.514 3.007-7.522 7.521-7.522 4.513-.215 7.092 3.223 7.092 7.307zm-10.958 0c0 3.007 1.288 4.942 3.651 4.942 1.935 0 3.44-1.291 3.44-4.943 0-2.794-1.074-4.943-3.654-4.943-1.935.214-3.437 1.934-3.437 4.943zm17.406-13.755c.214 0 .214 0 .214.215v6.876c1.074-.429 2.149-.644 3.223-.644 4.084 0 6.663 3.008 6.663 6.877 0 5.157-4.084 8.38-8.812 8.38-1.502 0-3.007-.214-4.512-.644-.214 0-.214-.214-.214-.214V6.447c0-.215 0-.215.214-.215h3.224zm2.793 9.24c-.858 0-1.719.215-2.363.43v8.81c.43.217 1.074.217 1.719.217 2.149 0 4.728-1.72 4.728-5.159-.216-2.793-1.935-4.298-4.084-4.298zm14.185 5.373c0 2.365 1.502 3.868 4.512 3.868 1.074 0 2.363-.215 3.653-.645 0 0 .215 0 .215.216v2.364c0 .213 0 .213-.215.43-1.074.644-2.579.858-4.514.858-5.372 0-7.521-3.652-7.521-7.522 0-4.297 2.579-7.735 7.093-7.735 4.512 0 6.23 3.438 6.23 6.232 0 1.29-.213 1.934-.213 1.934h-9.24zm4.726-2.364c1.074 0 1.29-.214 1.29-.214v-.43c0-.86-.644-2.794-3.009-2.794-1.933 0-3.007 1.504-3.223 3.438h4.942zM25.572 0h15.044v35.888L25.573 0zM0 0h15.043L0 35.888V0zm13.753 28.582l6.448-15.474 9.67 22.78h-6.232l-3.008-7.306h-6.878z"/>
</svg>