<svg xmlns="http://www.w3.org/2000/svg" width="1555" height="1632" viewBox="0 0 1555 1632">
    <g fill="none" fill-rule="evenodd">
        <path fill="#FFD63C" fill-rule="nonzero" d="M1285.91 298.039l3.07 4.682c9.119 13.904 27.783 17.784 41.687 8.665a30.107 30.107 0 0 0 9.251-9.596l.536-.885c6.34-10.482 19.976-13.84 30.459-7.501a22.182 22.182 0 0 1 7.96 8.297c6.92 12.591 22.738 17.189 35.33 10.268a26.015 26.015 0 0 0 10.268-10.268c5.59-10.172 18.367-13.886 28.539-8.295a21.015 21.015 0 0 1 8.295 8.295c6.92 12.591 22.737 17.189 35.329 10.268a26.015 26.015 0 0 0 10.269-10.268c6.03-10.974 19.816-14.98 30.79-8.95a22.673 22.673 0 0 1 8.276 7.806l3.914 6.229 4.234-2.66-3.915-6.23a27.673 27.673 0 0 0-10.101-9.527c-13.394-7.36-30.22-2.47-37.58 10.923a21.015 21.015 0 0 1-8.295 8.296c-10.172 5.59-22.95 1.876-28.54-8.296a26.015 26.015 0 0 0-10.268-10.268c-12.591-6.92-28.409-2.323-35.329 10.268a21.015 21.015 0 0 1-8.295 8.296c-10.171 5.59-22.949 1.876-28.539-8.296a27.182 27.182 0 0 0-9.754-10.167c-12.846-7.768-29.557-3.653-37.326 9.193l-.535.885a25.107 25.107 0 0 1-7.715 8.002c-11.595 7.604-27.16 4.369-34.764-7.226l-3.07-4.682-4.182 2.742z"/>
        <path fill="#1F1F1F" fill-rule="nonzero" d="M348.91 969.039l3.07 4.682c9.119 13.904 27.783 17.784 41.687 8.665a30.107 30.107 0 0 0 9.251-9.596l.536-.885c6.34-10.482 19.976-13.84 30.459-7.501a22.182 22.182 0 0 1 7.96 8.297c6.92 12.591 22.738 17.189 35.33 10.268a26.015 26.015 0 0 0 10.268-10.268c5.59-10.172 18.367-13.886 28.539-8.295a21.015 21.015 0 0 1 8.295 8.295c6.92 12.591 22.737 17.189 35.329 10.268a26.015 26.015 0 0 0 10.269-10.268c6.03-10.974 19.816-14.98 30.79-8.95a22.673 22.673 0 0 1 8.276 7.806l3.914 6.229 4.234-2.66-3.915-6.23a27.673 27.673 0 0 0-10.101-9.527c-13.394-7.36-30.22-2.47-37.58 10.923a21.015 21.015 0 0 1-8.295 8.296c-10.172 5.59-22.95 1.876-28.54-8.296a26.015 26.015 0 0 0-10.268-10.268c-12.591-6.92-28.409-2.323-35.329 10.268a21.015 21.015 0 0 1-8.295 8.296c-10.171 5.59-22.949 1.876-28.539-8.296a27.182 27.182 0 0 0-9.754-10.167c-12.846-7.768-29.557-3.653-37.326 9.193l-.535.885a25.107 25.107 0 0 1-7.715 8.002c-11.595 7.604-27.16 4.369-34.764-7.226l-3.07-4.682-4.182 2.742z"/>
        <path fill="#1F1F1F" d="M1420 1050h106l-52.79 92z"/>
        <path fill="#FFD63C" d="M72 1338h72l-35.857 62z"/>
        <circle cx="88.677" cy="82.916" r="61" fill="#1F1F1F"/>
        <circle cx="1354" cy="1571" r="61" fill="#FFD63C"/>
        <path fill="#FFD63C" d="M30.082 0h11.276v28.718H72v12.204H41.358V70H30.082V40.922H0V28.718h30.082z"/>
        <path fill="#1F1F1F" d="M156 1050h133v15H156z"/>
    </g>
</svg>
