<svg xmlns="http://www.w3.org/2000/svg" width="327" height="139" viewBox="0 0 327 139">
    <path fill="#1F1F1F" fill-rule="nonzero" d="M33.154 137.78c-13.427 4.104-27.215-2.823-31.446-16.663-4.231-13.84 3.347-27.224 16.773-31.329 8.47-2.589 15.455-1.412 21.655 3.845l-5.768 7.486c-3.298-2.907-7.864-4.297-13.234-2.655-8.47 2.59-12.184 10.877-9.51 19.622 2.673 8.744 10.43 13.676 18.898 11.087 6.06-1.853 8.55-5.776 9.945-10.57l9.084 2.87c-2.126 7.577-7.377 13.549-16.397 16.307zm46.92-30.984l14.17 11.629-11.154 3.41-11.332-9.485c-.853.411-1.796.775-2.691 1.048l-3.305 1.01 3.557 11.637-9.64 2.947-14.314-46.82 12.945-3.958c13.082-4 22.847-.134 26.341 11.296 2.232 7.298.406 12.901-4.578 17.286zm-16.88-.787l3.029-.927c7.85-2.4 10.534-5.93 8.513-12.54-2.02-6.61-6.4-8.133-14.113-5.775l-3.03.926 5.6 18.316zm38.762 10.058L87.64 69.247l30.985-9.474 2.589 8.47-21.345 6.525 4.547 14.873 18.797-5.747 2.526 8.262-18.797 5.747 2.063 6.748 22.309-6.82 2.59 8.468-31.95 9.768zm37.456-11.452l6.147-53.528.826-.252 35.855 40.687-10.122 3.094-3.824-4.628-19.004 5.81-.582 5.976-9.296 2.841zm11.727-36.26c0 .014.18 5.52-.186 9.242l-.89 9.156 12.325-3.768-5.858-7.094c-2.384-2.88-5.382-7.524-5.39-7.537zm48.108 17.967L187.52 47.971l-13.357 4.083-2.59-8.469 36.355-11.114 2.59 8.469-13.358 4.083 11.725 38.352-9.64 2.947zm30.295-9.262l-14.314-46.82 9.64-2.948 14.314 46.82-9.64 2.948zm32.588-29.84c0-.013-.21-7.092.339-11.698l2.334-20.44 9.364-2.862-6.078 53.507-.964.294-35.785-40.708 10.328-3.157 13.57 15.577c3.01 3.443 6.885 9.477 6.892 9.487zm32.686 9.884L280.5 10.284 311.486.81l2.589 8.47-21.345 6.525 4.547 14.872 18.797-5.746 2.526 8.262-18.797 5.747 2.063 6.748 22.309-6.82 2.59 8.468-31.95 9.768z"/>
</svg>
