<svg xmlns="http://www.w3.org/2000/svg" width="416" height="170" viewBox="0 0 416 170">
    <path fill="#181818" fill-rule="nonzero" d="M14.361 169.801L.047 122.981l30.984-9.474 2.59 8.47-21.345 6.525 4.547 14.873 18.797-5.747 2.526 8.262-18.797 5.747 2.063 6.748 22.308-6.82 2.59 8.468-31.949 9.768zm52.282-36.84c0 .014-.184 4.578-.87 7.495l-3.42 14.673-10.122 3.094 7.413-30.425-19.18-17.174 10.948-3.348 7.214 6.604c2.09 1.918 5.05 5.45 5.056 5.456 0-.01.088-4.396.728-7.224l2.08-9.446 10.26-3.136-6.069 24.97 23.413 20.924-11.016 3.368-11.178-10.21c-2.18-1.964-5.247-5.609-5.257-5.62zm34.061 10.442L86.39 96.583l12.944-3.958c13.083-4 23.016.417 26.468 11.71 3.453 11.291-2.403 20.46-15.416 24.438l-3.305 1.01 3.263 10.673-9.64 2.947zm3.788-22.088l3.03-.926c7.849-2.4 10.323-6.62 8.365-13.023-1.979-6.473-6.527-8.545-14.239-6.188l-3.03.927 5.874 19.21zm37.593 9.437l-14.314-46.82 30.984-9.474 2.59 8.47L140 89.452l4.547 14.873 18.797-5.747 2.526 8.262-18.797 5.747 2.063 6.748 22.308-6.82 2.59 8.468-31.949 9.768zm61.293-34.7l14.171 11.628-11.154 3.41-11.332-9.485c-.853.412-1.796.775-2.691 1.049l-3.305 1.01 3.557 11.637-9.64 2.947-14.314-46.821 12.945-3.958c13.082-4 22.847-.133 26.341 11.296 2.232 7.299.406 12.902-4.578 17.286zm-16.88-.788l3.03-.926c7.85-2.4 10.534-5.931 8.513-12.541-2.02-6.61-6.4-8.132-14.112-5.774l-3.03.926 5.6 18.315zm38.97 9.995l-14.315-46.82 9.64-2.947 14.314 46.82-9.64 2.947zm19.554-5.978l-14.314-46.82 30.984-9.474 2.59 8.47-21.346 6.525 4.547 14.873 18.797-5.747 2.527 8.262-18.798 5.747 2.063 6.748 22.31-6.82 2.588 8.468-31.948 9.768zm65.284-40.363c-.006-.013-2.242-5.116-3.23-8.348l-6-19.624 9.02-2.757 14.441 47.234-.964.294-30.395-14.95c-3.01-1.486-7.523-4.69-7.535-4.699.006.013 2.269 4.958 3.299 8.328l6 19.623-9.02 2.758-14.441-47.234.963-.295 30.396 14.95c2.92 1.439 7.453 4.711 7.466 4.72zm46.587 6.838c-13.427 4.105-27.215-2.822-31.446-16.662-4.231-13.84 3.347-27.224 16.773-31.329 8.47-2.59 15.455-1.412 21.655 3.845l-5.768 7.485c-3.298-2.906-7.864-4.296-13.234-2.654-8.47 2.589-12.184 10.877-9.511 19.622 2.673 8.744 10.43 13.676 18.9 11.087 6.058-1.853 8.548-5.776 9.944-10.57l9.084 2.87c-2.126 7.576-7.377 13.549-16.397 16.306zm26.526-8.787l-14.315-46.82L400.088.674l2.59 8.47-21.345 6.525 4.547 14.873 18.797-5.747 2.526 8.262-18.797 5.747 2.063 6.748 22.309-6.82 2.589 8.468-31.948 9.768z"/>
</svg>
