<svg xmlns="http://www.w3.org/2000/svg" width="20" height="20" viewBox="0 0 20 20">
    <path fill="#FFF" fill-rule="evenodd" d="M6 10a2 2 0 1 1 0-4 2 2 0 0 1 0 4zm8 0a2 2 0 1 1 0-4 2 2 0 0 1 0 4zm-4 10C4.477 20 0 15.523 0 10S4.477 0 10 0s10 4.477 10 10-4.477 10-10 10zm0-1.5a8.5 8.5 0 1 0 0-17 8.5 8.5 0 0 0 0 17zm-4.703-6.102a.75.75 0 0 1 1.406-.524c.65 1.744 1.712 2.552 3.297 2.552 1.585 0 2.648-.808 3.297-2.552a.75.75 0 1 1 1.406.524c-.86 2.309-2.464 3.528-4.703 3.528-2.239 0-3.843-1.22-4.703-3.528z"/>
</svg>
