<svg xmlns="http://www.w3.org/2000/svg" width="76" height="31" viewBox="0 0 76 31">
    <path fill="#FFD63C" fill-rule="evenodd" d="M3.251 27.14h.827l1.19 3.392h-.726l-.203-.61H2.99l-.203.61h-.72l1.184-3.391zm.416.771l-.464 1.386h.928l-.464-1.386zm14.902 1.061c0 .979-.691 1.628-1.663 1.628-1.059 0-1.813-.79-1.813-1.759 0-.983.764-1.768 1.774-1.768.643 0 1.19.324 1.475.79l-.57.33c-.155-.272-.499-.471-.91-.471-.642 0-1.107.475-1.107 1.12 0 .63.45 1.104 1.156 1.104.532 0 .87-.257.986-.644h-1.025v-.592h1.697v.262zm12.379.92v.64h-2.094v-3.391h2.07v.639h-1.402v.722h1.28v.63h-1.28v.76h1.426zm12.972-2.751v3.391h-.508l-1.45-2.074v2.074h-.667v-3.391h.508l1.45 2.068v-2.068h.667zm10.294 1.695c0-.993.735-1.763 1.76-1.763.618 0 1.165.315 1.455.8l-.576.334c-.164-.301-.493-.485-.88-.485-.662 0-1.097.46-1.097 1.114 0 .65.435 1.11 1.097 1.11.387 0 .72-.184.88-.48l.576.335c-.286.484-.832.799-1.456.799-1.024 0-1.76-.775-1.76-1.764zm14.874.373v1.323h-.662V29.21l-1.155-2.068h.754l.735 1.414.735-1.414h.754l-1.16 2.068zm-4.772-12.247a5.648 5.648 0 0 0 5.642-5.654 5.648 5.648 0 0 0-5.642-5.654 5.648 5.648 0 0 0-5.641 5.654 5.648 5.648 0 0 0 5.641 5.654zm0-16.962C70.548 0 75.6 5.063 75.6 11.308c0 6.246-5.052 11.308-11.284 11.308-5.52 0-10.112-3.971-11.09-9.219L60.577.637A11.242 11.242 0 0 1 64.317 0zM3.386 15.831a3.389 3.389 0 0 1 3.384 3.393 3.389 3.389 0 0 1-3.385 3.392A3.389 3.389 0 0 1 0 19.224a3.389 3.389 0 0 1 3.385-3.393zM16.18 0c4.667 0 8.534 3.74 8.57 8.417.034 4.713-3.768 8.545-8.464 8.545l3.258 5.654h-6.515L6.515 11.308h9.771a2.824 2.824 0 0 0 2.82-2.772c.03-1.585-1.302-2.882-2.883-2.882H3.257L0 0h16.18zm34.34 0h6.515L44.006 22.616 30.976 0h6.515l6.515 11.308L50.52 0zM27.08 22.616V.022l5.642 9.793v12.801h-5.641z"/>
</svg>
