<svg xmlns="http://www.w3.org/2000/svg" width="20" height="20" viewBox="0 0 20 20">
    <path fill="#FFF" fill-rule="evenodd" d="M9 9h8a1 1 0 0 1 0 2H9a1 1 0 0 1 0-2zm0 7h8a1 1 0 0 1 0 2H9a1 1 0 0 1 0-2zM9 2h8a1 1 0 0 1 0 2H9a1 1 0 0 1 0-2zM6 4a2 2 0 0 0 2 2h10a2 2 0 0 0 2-2V2a2 2 0 0 0-2-2H8a2 2 0 0 0-2 2H2V0H0v16a2 2 0 0 0 2.001 2H6a2 2 0 0 0 2 2h10a2 2 0 0 0 2-2v-2a2 2 0 0 0-2-2H8a2 2 0 0 0-2 2H2.996A.996.996 0 0 1 2 15.004V11h4a2 2 0 0 0 2 2h10a2 2 0 0 0 2-2V9a2 2 0 0 0-2-2H8a2 2 0 0 0-2 2H2V4h4z"/>
</svg>
