<svg xmlns="http://www.w3.org/2000/svg" width="92" height="49" viewBox="0 0 92 49">
    <path fill="#FFF" fill-rule="evenodd" d="M74.548 1.156h.142c.095 0 .162-.016.201-.047a.15.15 0 0 0 .059-.122c0-.05-.02-.09-.056-.122-.038-.032-.1-.047-.19-.047h-.156v.338zM74.22.584h.589c.166 0 .287.034.362.102.074.07.112.162.112.277 0 .09-.029.17-.086.235a.497.497 0 0 1-.268.144c.05.02.086.04.11.062.034.03.07.077.106.137l.213.389h-.388c-.126-.256-.21-.41-.254-.46-.043-.049-.086-.074-.129-.074a.242.242 0 0 0-.04.005v.529h-.327V.584zm1.55.673a.99.99 0 0 0-.29-.718.947.947 0 0 0-.702-.297c-.273 0-.507.1-.7.297a.987.987 0 0 0-.291.718c0 .28.096.519.29.717a.947.947 0 0 0 .701.297c.275 0 .508-.1.702-.297a.99.99 0 0 0 .29-.717zm.24 0c0 .224-.055.434-.165.628a1.23 1.23 0 0 1-.45.46c-.19.112-.395.168-.616.168a1.226 1.226 0 0 1-1.064-.628 1.251 1.251 0 0 1-.166-.628c0-.225.055-.434.165-.629A1.227 1.227 0 0 1 74.78 0c.22 0 .426.056.617.168a1.256 1.256 0 0 1 .614 1.09v-.001zM15.26 31.23h.142c.096 0 .162-.015.201-.047a.15.15 0 0 0 .059-.122.15.15 0 0 0-.056-.121c-.038-.032-.101-.048-.19-.048h-.156v.338zm-.326-.572h.588c.166 0 .287.035.362.103a.36.36 0 0 1 .112.277c0 .09-.029.168-.086.234a.5.5 0 0 1-.27.143c.052.02.09.041.113.064.033.03.068.076.105.136l.213.389h-.388c-.126-.255-.21-.41-.254-.458-.043-.05-.086-.076-.13-.076a.17.17 0 0 0-.04.006v.528h-.325v-1.346zm1.55.673c0-.28-.097-.52-.291-.717a.94.94 0 0 0-.701-.298.944.944 0 0 0-.702.298.988.988 0 0 0-.29.717c0 .28.096.519.29.718a.95.95 0 0 0 .702.296c.274 0 .507-.099.7-.296a.99.99 0 0 0 .292-.718zm.24 0a1.259 1.259 0 0 1-.616 1.089c-.19.111-.396.167-.616.167a1.223 1.223 0 0 1-1.065-.627 1.259 1.259 0 0 1-.165-.629c0-.225.055-.434.165-.628.11-.195.26-.349.451-.46.19-.113.395-.169.614-.169.22 0 .426.056.616.169.19.111.34.265.45.46.11.194.166.403.166.628zm-4.325-5.867h5.752l4.141-11.099-.46 11.099h6.096L37.246.009h-5.694l-4.257 11.245.69-11.245h-6.153l-9.433 25.455zM38.166.009l-9.26 25.455h5.752L43.975.009h-5.809zm13.63 23.693L60.137.684l-8.857 9.63.518 13.388zM11.552 16.92s-2.373 4.58-2.373 8.544c0 0-.215 9.336 9.232 9.336h1.294s1.897.616 34.594-9.336h-8.28l-.433-10.482-3.882 10.482h-5.952L45.154.009h5.695l-2.589 7.31L54.385.01H72.33l-1.553 4.228H64.65l-1.897 5.372h5.693l-1.81 4.756h-5.609l-2.243 6.254h6.73l-.518 1.85S89.412 16.039 92 15.334C92 15.334 22.417 49 11.029 49c0 0-10.995.069-10.995-9.092 0 0-1.252-8.543 11.517-22.988z"/>
</svg>
