<svg xmlns="http://www.w3.org/2000/svg" width="21" height="21" viewBox="0 0 21 21">
    <path fill="#FFF" fill-rule="nonzero" d="M15.75 9.45H5.25a1.05 1.05 0 0 1 0-2.1h10.5a1.05 1.05 0 0 1 0 2.1zm3.15 2.1c0 .58-.47 1.05-1.05 1.05H3.15c-.58 0-1.05-.47-1.05-1.05v-6.3c0-.58.47-1.05 1.05-1.05h14.7c.58 0 1.05.47 1.05 1.05v6.3zm0-9.45h-7.35V1.05a1.05 1.05 0 0 0-2.1 0V2.1H2.1A2.1 2.1 0 0 0 0 4.2v8.4c0 1.16.94 2.1 2.1 2.1h5.033L4.89 19.51a1.048 1.048 0 0 0 1.898.886L9.45 14.7v5.253c0 .578.47 1.047 1.047 1.047h.006c.578 0 1.047-.47 1.047-1.047V14.7l2.66 5.696a1.047 1.047 0 0 0 1.9-.886l-2.243-4.81H18.9a2.1 2.1 0 0 0 2.1-2.1V4.2a2.1 2.1 0 0 0-2.1-2.1z"/>
</svg>
